<svg xmlns="http://www.w3.org/2000/svg" width="32" height="32" viewBox="0 0 32 32" fill="#09090b" aria-hidden="true">
  <style>
    @media (prefers-color-scheme: dark) {
      svg { fill: #fafafa }
    }
  </style>
  <path d="M8.8 16.4C5.6 15.8 3 17 1.6 19.2 4.4 19.4 7 20.4 9.2 20.8z"/>
  <path d="M16.4 9.2C15 5.6 12 2.6 7 1.5c2.8 2.9 4.4 5.5 5.2 8.7z"/>
  <path d="M11.6 10.8C10.2 8 8 5.8 4.6 4.8 6.6 7.2 7.8 9.6 8.4 13z"/>
  <path d="M24.3 17.6 23.8 20.6 23.1 17.9z"/>
  <path d="M20.4 18.6 20 20.8 19.5 18.8z"/>
  <path d="M26.2 22.2 25.8 20.4 25.4 22.2z"/>
  <path d="M11.5 20.8C15 21.6 20 22 26.6 22.2C26.8 23.4 26 24.6 24.6 25.2C20 26.4 15.6 25.6 12.6 23.4C11.6 22.6 11.2 21.6 11.5 20.8Z"/>
  <path fill-rule="evenodd" d="M29.5 16C27.6 13.6 25.4 12.9 23 12.6C21.5 12.4 20.3 11.8 19.5 10.6C18 8.7 16 8.1 14 8.6C10.4 9.4 8.1 11.2 7.5 14C6.9 16.4 6.9 18 7.4 19.4C7.9 20.8 9 21.4 10.6 21.2C16 20.2 22 18.6 29.5 16ZM21.2 15.2C19.8 13.8 18.2 13.4 17.4 14.2C18.2 16 19.8 16.2 21.2 15.2ZM26.95 16.4A.55.55 0 1 1 25.85 16.4A.55.55 0 1 1 26.95 16.4Z"/>
</svg>
